<?xml version="1.0" ?><svg height="500" id="svg2" version="1.1" width="500" xmlns="http://www.w3.org/2000/svg" xmlns:cc="http://creativecommons.org/ns#" xmlns:dc="http://purl.org/dc/elements/1.1/" xmlns:inkscape="http://www.inkscape.org/namespaces/inkscape" xmlns:rdf="http://www.w3.org/1999/02/22-rdf-syntax-ns#" xmlns:sodipodi="http://sodipodi.sourceforge.net/DTD/sodipodi-0.dtd" xmlns:svg="http://www.w3.org/2000/svg"><defs id="defs4"/><g id="layer1" transform="translate(0,-552.36218)"><path d="M 50 0 C 22.3 0 -1.0018638e-016 22.3 0 50 L 0 450 C 0 477.7 22.3 500 50 500 L 225.1875 500 L 225.1875 276.03125 L 180.90625 276.03125 L 180.90625 196.84375 L 225.1875 196.84375 L 225.1875 145.625 C 225.1875 108.94857 242.62281 51.65625 319.1875 51.65625 L 388.15625 51.90625 L 388.15625 128.75 L 338.0625 128.75 C 329.90292 128.75 318.3125 132.83295 318.3125 150.3125 L 318.3125 196.84375 L 389.28125 196.84375 L 381.15625 276.03125 L 318.3125 276.03125 L 318.3125 500 L 450 500 C 477.7 500 500 477.7 500 450 L 500 50 C 500 22.3 477.7 -1.0018638e-016 450 0 L 50 0 z " id="rect2995" style="fill:#000000;fill-opacity:1;fill-rule:nonzero" transform="translate(0,552.36218)"/></g></svg>