<?xml version="1.0" encoding="UTF-8"?>
<!DOCTYPE svg PUBLIC "-//W3C//DTD SVG 1.1//EN" "http://www.w3.org/Graphics/SVG/1.1/DTD/svg11.dtd">
<svg xmlns="http://www.w3.org/2000/svg" version="1.1" width="512px" height="512px" style="shape-rendering:geometricPrecision; text-rendering:geometricPrecision; image-rendering:optimizeQuality; fill-rule:evenodd; clip-rule:evenodd" xmlns:xlink="http://www.w3.org/1999/xlink">
<g><path style="opacity:0.994" fill="#000000" d="M 57.5,-0.5 C 189.5,-0.5 321.5,-0.5 453.5,-0.5C 485.167,6.5 504.5,25.8333 511.5,57.5C 511.5,189.5 511.5,321.5 511.5,453.5C 504.5,485.167 485.167,504.5 453.5,511.5C 321.5,511.5 189.5,511.5 57.5,511.5C 25.8333,504.5 6.5,485.167 -0.5,453.5C -0.5,321.5 -0.5,189.5 -0.5,57.5C 6.5,25.8333 25.8333,6.5 57.5,-0.5 Z M 247.5,102.5 C 309.485,102.236 357.651,127.569 392,178.5C 418.247,224.52 421.581,272.187 402,321.5C 381.497,364.667 348.497,393.667 303,408.5C 300.113,408.097 297.779,406.764 296,404.5C 295.667,386.833 295.333,369.167 295,351.5C 294.419,343.253 291.586,335.919 286.5,329.5C 337.953,323.297 361.453,294.297 357,242.5C 355.206,229.418 350.04,217.918 341.5,208C 345.841,194.26 345.175,180.76 339.5,167.5C 333.382,166.211 327.382,166.711 321.5,169C 312.185,172.991 303.185,177.491 294.5,182.5C 268.5,175.833 242.5,175.833 216.5,182.5C 209.361,178.429 202.028,174.596 194.5,171C 186.82,167.764 178.82,166.264 170.5,166.5C 169.237,171.126 168.071,175.792 167,180.5C 166.338,190.578 166.671,200.578 168,210.5C 157.918,222.402 152.752,236.235 152.5,252C 152.3,270.369 157.133,287.202 167,302.5C 174.923,312.091 184.757,318.925 196.5,323C 205.812,325.725 215.145,328.059 224.5,330C 219.452,335.596 216.118,342.096 214.5,349.5C 199.915,356.314 186.749,354.314 175,343.5C 169.929,334.15 162.763,326.983 153.5,322C 148.924,320.524 144.257,320.19 139.5,321C 137.099,323.173 137.099,325.506 139.5,328C 143.951,330.783 148.117,333.95 152,337.5C 157.441,345.38 162.108,353.714 166,362.5C 177.728,374.313 191.895,378.813 208.5,376C 210.764,375.764 212.931,375.264 215,374.5C 215.667,383.833 215.667,393.167 215,402.5C 213.533,405.802 211.033,407.802 207.5,408.5C 152.867,390.367 117.367,353.7 101,298.5C 86.6756,228.36 108.176,172.193 165.5,130C 190.544,113.708 217.877,104.541 247.5,102.5 Z"/></g>
</svg>
