<?xml version="1.0" standalone="no"?>
<!DOCTYPE svg PUBLIC "-//W3C//DTD SVG 20010904//EN"
 "http://www.w3.org/TR/2001/REC-SVG-20010904/DTD/svg10.dtd">
<svg version="1.0" xmlns="http://www.w3.org/2000/svg"
 width="900.000000pt" height="500.000000pt" viewBox="0 0 900.000000 500.000000"
 preserveAspectRatio="xMidYMid meet">

<g transform="translate(0.000000,500.000000) scale(0.100000,-0.100000)"
fill="#000000" stroke="none">
<path d="M2868 3073 c-55 -5 -64 -20 -16 -25 53 -5 58 -27 57 -253 -2 -250 -3
-257 -52 -268 -71 -17 -36 -27 93 -27 127 0 170 12 95 26 -20 3 -40 15 -45 25
-6 10 -10 62 -10 117 l0 100 88 4 c144 7 196 52 189 160 -4 66 -28 100 -87
125 -35 16 -220 25 -312 16z m262 -41 c39 -29 51 -61 47 -120 -3 -43 -10 -59
-34 -84 -27 -27 -38 -31 -89 -32 l-59 -1 -3 119 c-1 66 0 126 3 134 8 20 101
9 135 -16z"/>
<path d="M2490 3060 c0 -5 15 -10 33 -10 18 0 38 -5 45 -12 9 -9 12 -73 12
-229 0 -208 -1 -217 -23 -250 -26 -39 -60 -59 -102 -59 -41 0 -54 15 -48 55 4
27 1 35 -16 44 -41 22 -84 -25 -62 -67 24 -45 135 -66 212 -41 19 7 47 23 62
38 56 51 60 69 65 291 2 116 9 210 14 218 6 6 26 12 44 12 19 0 34 5 34 10 0
6 -52 10 -135 10 -83 0 -135 -4 -135 -10z"/>
<path d="M3360 3060 c0 -5 15 -10 34 -10 59 0 61 -9 61 -250 0 -239 -1 -241
-62 -267 -58 -24 -38 -33 72 -33 111 0 130 9 71 34 -19 8 -39 24 -45 35 -8 13
-10 89 -9 222 l3 201 109 -246 c60 -135 113 -246 117 -246 3 0 11 6 16 13 9
12 17 29 139 307 37 85 71 159 76 165 4 5 8 -88 8 -206 0 -238 -2 -247 -60
-252 -19 -1 -34 -7 -33 -12 2 -6 61 -11 139 -13 100 -2 135 0 132 9 -2 7 -19
14 -38 16 -19 2 -39 8 -45 14 -6 6 -11 96 -13 232 -3 255 0 270 61 275 73 6
36 22 -52 22 l-88 0 -98 -222 c-55 -123 -101 -226 -105 -230 -3 -4 -51 95
-106 220 l-102 227 -91 3 c-58 2 -91 -1 -91 -8z"/>
<path d="M4304 2934 c-81 -29 -143 -118 -144 -203 0 -141 95 -234 241 -233
155 1 248 98 236 248 -6 82 -42 137 -113 174 -59 30 -159 37 -220 14z m200
-43 c44 -43 60 -101 54 -195 -6 -86 -27 -131 -78 -160 -43 -25 -118 -25 -161
0 -53 31 -74 84 -74 189 0 103 17 143 76 183 28 20 44 23 92 20 48 -4 62 -9
91 -37z"/>
<path d="M4707 2943 c-14 -13 -6 -22 21 -25 l27 -3 3 -188 2 -189 -30 -11
c-16 -6 -30 -15 -30 -19 0 -4 47 -8 105 -8 63 0 105 4 105 10 0 6 -11 10 -24
10 -44 0 -56 24 -56 111 0 77 1 80 22 77 14 -2 50 -39 101 -105 l80 -103 63 0
c71 0 83 12 29 30 -25 8 -53 34 -97 88 -34 42 -69 82 -77 88 -11 9 -8 13 17
22 117 40 107 177 -14 211 -42 12 -236 15 -247 4z m218 -27 c45 -19 63 -77 41
-130 -12 -28 -23 -37 -56 -46 -71 -19 -75 -16 -78 79 -2 47 -1 90 2 98 7 17
48 17 91 -1z"/>
<path d="M5320 2934 c-79 -34 -130 -119 -130 -217 0 -175 134 -257 333 -203
l67 19 0 43 c0 64 14 94 46 94 16 0 24 5 21 13 -5 17 -189 17 -194 0 -3 -7 8
-13 24 -15 26 -3 28 -7 31 -49 4 -64 -19 -90 -85 -96 -64 -7 -112 19 -139 75
-28 55 -27 204 2 252 32 56 80 83 136 77 63 -5 96 -29 122 -88 11 -27 24 -49
29 -49 4 0 7 32 7 70 0 68 -12 92 -23 48 -6 -21 -7 -21 -24 -5 -51 45 -156 60
-223 31z"/>
<path d="M5889 2918 c-25 -65 -131 -314 -146 -346 -9 -19 -27 -39 -40 -45 -39
-18 -26 -27 40 -27 71 0 88 8 55 24 -30 15 -33 37 -12 91 l17 45 83 0 83 0 20
-44 c36 -82 36 -86 2 -92 -54 -11 -22 -24 59 -24 82 0 106 10 66 28 -18 8 -43
57 -111 216 -48 113 -91 206 -95 206 -4 0 -13 -15 -21 -32z m41 -157 c16 -41
30 -75 30 -77 0 -2 -31 -4 -70 -4 -43 0 -70 4 -70 11 0 24 63 160 71 152 4 -4
22 -41 39 -82z"/>
<path d="M6195 2930 c3 -5 15 -10 25 -10 35 0 41 -32 38 -207 l-3 -168 -32
-14 c-18 -8 -33 -18 -33 -23 0 -4 36 -8 80 -8 44 0 80 4 80 8 0 4 -16 14 -35
21 l-35 12 0 177 c0 97 4 172 8 167 5 -6 71 -92 147 -192 75 -100 143 -188
151 -194 12 -10 14 20 14 195 l0 207 35 15 c19 8 35 16 35 19 0 3 -36 5 -80 5
-47 0 -80 -4 -80 -10 0 -5 11 -10 24 -10 42 0 47 -18 44 -167 l-3 -140 -124
163 -124 164 -69 0 c-44 0 -67 -4 -63 -10z"/>
<path d="M2432 2422 c-103 -37 -170 -135 -180 -263 -13 -178 103 -309 273
-309 65 0 136 24 165 56 30 31 36 30 49 -6 20 -59 31 -33 31 75 0 111 -11 135
-30 63 -27 -102 -95 -158 -192 -158 -92 0 -165 62 -189 162 -15 64 -7 199 16
255 70 174 313 150 361 -36 6 -25 17 -47 23 -49 10 -3 12 20 9 104 -3 110 -19
149 -32 79 -8 -38 -17 -43 -37 -19 -45 54 -178 77 -267 46z"/>
<path d="M4994 2406 c-29 -29 -34 -41 -34 -80 0 -28 9 -64 21 -88 l21 -42 -28
-20 c-16 -11 -46 -36 -66 -56 -103 -102 -28 -270 121 -270 50 0 84 13 131 50
l37 29 24 -26 c54 -58 147 -71 198 -27 17 14 31 32 31 40 0 19 -7 18 -37 -6
-42 -33 -71 -26 -124 29 l-47 49 41 83 c30 60 52 91 77 107 19 13 37 27 38 33
2 5 -37 9 -92 9 -97 0 -120 -10 -66 -28 43 -15 47 -49 16 -118 -16 -35 -30
-54 -36 -48 -5 5 -38 49 -73 98 l-64 89 46 31 c54 37 82 85 72 124 -11 41 -64
72 -123 72 -43 0 -54 -4 -84 -34z m133 -8 c36 -33 31 -82 -12 -125 -19 -19
-40 -33 -47 -31 -7 2 -23 24 -36 48 -26 51 -23 85 10 113 27 23 57 22 85 -5z
m-22 -338 l74 -105 -22 -23 c-30 -33 -89 -48 -125 -33 -70 29 -115 109 -98
175 8 34 65 98 83 94 7 -2 47 -50 88 -108z"/>
<path d="M5773 2419 c-103 -40 -167 -148 -167 -284 -1 -94 22 -151 83 -208 58
-54 105 -72 196 -71 72 0 135 23 164 58 19 22 30 20 41 -9 20 -51 30 -25 30
75 0 55 -4 100 -8 100 -4 0 -13 -19 -19 -42 -27 -99 -98 -158 -191 -158 -63 0
-98 16 -140 64 -88 100 -81 324 12 422 32 33 51 44 87 49 111 16 205 -51 233
-167 14 -60 26 -25 26 78 0 79 -3 105 -12 102 -7 -3 -17 -19 -22 -36 l-9 -31
-31 24 c-74 56 -180 70 -273 34z"/>
<path d="M3611 2288 c-154 -370 -168 -398 -198 -398 -7 0 -13 -7 -13 -15 0
-12 14 -15 70 -15 72 0 91 13 45 30 -29 11 -30 21 -9 83 l16 47 83 0 82 0 22
-56 c26 -70 26 -70 -4 -78 -53 -14 -22 -26 65 -26 89 0 115 11 68 29 -23 9
-33 30 -161 335 -36 86 -51 101 -66 64z m53 -216 c7 -21 4 -22 -58 -22 -36 0
-66 2 -66 4 0 4 23 60 48 119 l17 39 26 -59 c15 -33 30 -69 33 -81z"/>
<path d="M3950 2283 c-39 -36 -49 -87 -25 -136 14 -29 33 -44 106 -82 121 -63
148 -107 94 -160 -19 -20 -34 -25 -74 -25 -43 0 -52 4 -79 34 -17 19 -33 48
-37 65 -12 54 -25 33 -25 -39 0 -67 12 -93 23 -50 5 20 6 20 43 -5 21 -14 48
-28 61 -31 42 -11 95 6 130 41 29 29 33 40 33 84 0 71 -21 98 -106 138 -126
58 -159 102 -114 151 41 43 122 15 154 -53 10 -20 20 -34 24 -31 12 12 7 116
-5 116 -7 0 -13 -7 -13 -15 0 -12 -6 -11 -32 5 -50 30 -120 27 -158 -7z"/>
<path d="M6377 2296 c-97 -35 -146 -107 -147 -214 0 -70 20 -120 67 -163 49
-47 92 -62 169 -62 125 0 209 62 233 172 33 153 -74 280 -234 280 -27 0 -67
-6 -88 -13z m163 -24 c20 -11 46 -38 60 -63 21 -38 25 -57 25 -129 0 -70 -4
-92 -24 -126 -31 -54 -73 -78 -138 -78 -86 0 -136 49 -154 151 -12 70 -1 149
30 199 37 60 133 82 201 46z"/>
<path d="M2870 2290 c0 -5 13 -10 29 -10 38 0 41 -12 41 -197 0 -171 -7 -203
-45 -203 -14 0 -25 -4 -25 -10 0 -6 38 -10 94 -10 53 0 98 4 101 10 3 6 -5 10
-19 10 -36 0 -46 26 -46 119 l0 81 115 0 115 0 0 -81 c0 -92 -10 -119 -45
-119 -14 0 -25 -4 -25 -10 0 -6 40 -10 100 -10 55 0 100 4 100 9 0 5 -12 11
-27 13 -37 4 -41 24 -42 200 -1 158 7 198 38 198 11 0 23 5 26 10 4 6 -31 10
-97 10 -70 0 -98 -3 -88 -10 8 -5 22 -10 31 -10 23 0 29 -21 29 -101 l0 -69
-115 0 -115 0 0 63 c0 78 8 107 29 107 9 0 23 5 31 10 10 7 -18 10 -87 10 -62
0 -103 -4 -103 -10z"/>
<path d="M4290 2291 c0 -5 10 -11 23 -13 22 -3 22 -5 25 -187 3 -191 -1 -211
-39 -211 -11 0 -19 -4 -19 -9 0 -9 345 -10 353 -1 8 10 17 130 9 130 -4 0 -14
-16 -20 -35 -7 -18 -27 -45 -43 -60 -25 -20 -41 -25 -89 -25 -35 0 -62 5 -68
13 -6 7 -12 53 -14 103 l-3 89 40 3 c47 3 65 -7 68 -36 1 -12 5 -22 9 -22 4 0
8 33 8 73 -1 70 -1 71 -15 40 -10 -25 -22 -33 -49 -39 -68 -12 -75 4 -58 130
l7 50 60 -3 c74 -3 90 -12 106 -56 14 -38 35 -49 25 -12 -3 12 -6 37 -6 55 l0
32 -155 0 c-89 0 -155 -4 -155 -9z"/>
<path d="M6756 1934 c-31 -30 -9 -84 34 -84 24 0 50 26 50 49 0 22 -30 51 -53
51 -8 0 -23 -7 -31 -16z"/>
</g>
</svg>
