<svg version="1.1" id="Layer_1" xmlns="http://www.w3.org/2000/svg" xmlns:xlink="http://www.w3.org/1999/xlink" x="0px" y="0px"
	 width="100%" viewBox="0 0 512 512" enable-background="new 0 0 512 512" xml:space="preserve">
<path fill="#000000" opacity="1.000000" stroke="none" 
	d="
M1.000002,405.000000 
	C1.000000,306.645782 1.000000,208.291550 1.372759,109.348671 
	C2.163615,107.381546 2.572319,106.000145 3.001325,104.625069 
	C5.902690,95.325462 8.009474,85.679596 11.873691,76.798576 
	C20.780947,56.327301 34.392628,39.323994 52.470722,26.038994 
	C64.859406,16.934952 78.125252,9.621081 93.200729,5.956492 
	C99.811478,4.349534 106.400894,2.654850 113.000000,1.000000 
	C208.354233,1.000000 303.708466,1.000000 399.679810,1.394964 
	C413.268005,2.809520 425.551971,6.492766 437.326874,11.811484 
	C457.685211,21.007334 474.698700,34.487797 487.976410,52.516300 
	C497.078339,64.874893 504.383118,78.156975 508.031860,93.217445 
	C509.708954,100.139870 511.345215,107.072174 513.000000,114.000000 
	C513.000000,209.020889 513.000000,304.041779 512.605042,399.679810 
	C511.190430,413.267975 507.507324,425.551941 502.188538,437.326813 
	C492.992615,457.685120 479.512299,474.698700 461.483734,487.976379 
	C449.125092,497.078278 435.843048,504.383087 420.782562,508.031830 
	C413.860138,509.708923 406.927826,511.345184 400.000000,513.000000 
	C304.645782,513.000000 209.291550,513.000000 113.324829,512.608521 
	C100.168427,510.780853 88.182350,507.382019 76.647125,502.243988 
	C55.669254,492.899933 38.484177,478.799225 25.009468,460.355804 
	C16.367290,448.526855 9.679855,435.576813 5.945909,421.243042 
	C4.520339,415.770569 2.661431,410.411011 1.000002,405.000000 
M214.049042,119.435585 
	C186.541870,134.268478 170.483597,156.259064 171.018036,188.527802 
	C171.243027,202.112289 171.541046,215.698547 172.089127,229.272568 
	C172.224594,232.627457 170.731842,234.007629 168.034943,234.983871 
	C161.764740,237.253586 156.036346,235.208954 150.186859,233.102264 
	C147.054001,231.973969 143.597122,231.031372 140.332550,231.161499 
	C136.150772,231.328156 132.378983,233.688660 131.194794,237.865601 
	C130.109436,241.693970 132.108322,244.772141 135.930130,246.465149 
	C141.476242,248.922043 146.949600,251.543549 152.501831,253.986099 
	C159.368149,257.006683 166.792358,258.915344 169.374878,267.656464 
	C170.968765,273.051270 168.840149,277.438507 166.659225,281.403198 
	C161.860397,290.126801 156.782806,298.876495 150.543640,306.583038 
	C142.731293,316.232697 133.287811,324.452454 121.443939,329.116364 
	C114.914909,331.687286 108.164574,333.692719 101.535698,336.014954 
	C97.610741,337.389954 96.644608,340.627502 99.709419,342.875244 
	C102.517479,344.934662 105.636528,346.920197 108.927711,347.903168 
	C117.832230,350.562744 126.867943,352.814819 135.923523,354.919037 
	C138.955048,355.623413 140.943878,356.736511 141.509781,359.945618 
	C141.871338,361.995941 142.309525,364.075165 143.058426,366.007690 
	C146.923370,375.981049 146.576279,376.745026 157.937958,375.297089 
	C167.925049,374.024384 178.261307,374.321014 188.330200,375.208466 
	C197.385330,376.006592 204.424088,382.140106 211.667892,387.192352 
	C226.924042,397.832977 242.840057,405.671661 262.436676,403.173737 
	C272.529510,401.887238 281.244049,398.080627 289.627136,392.861816 
	C298.092773,387.591583 306.076843,381.225983 315.119049,377.282806 
	C327.247498,371.993713 340.391266,372.972839 353.181244,375.687134 
	C360.794952,377.302917 363.312073,376.060883 364.973572,368.572693 
	C365.428162,366.523834 365.647064,364.423767 366.017975,362.355072 
	C366.699585,358.553467 368.541931,355.815918 372.650055,355.119934 
	C376.635437,354.444794 380.653473,353.890656 384.581207,352.962006 
	C392.864471,351.003571 401.380859,349.520508 407.655334,342.876709 
	C411.182983,339.141449 410.824524,337.699829 405.698547,335.965881 
	C399.641724,333.917145 393.236237,332.569153 387.578430,329.729034 
	C365.442200,318.617096 350.242920,300.675659 340.380310,278.379639 
	C336.818329,270.327240 337.709045,263.523804 344.279388,259.463135 
	C349.263092,256.383026 354.991333,254.524216 360.325104,251.989090 
	C365.071899,249.732941 370.037415,247.742157 374.341827,244.806458 
	C378.409271,242.032364 378.099335,236.148132 374.022858,233.650391 
	C370.269470,231.350647 366.289948,229.215225 361.433380,230.946091 
	C357.225800,232.445633 352.890839,233.617477 348.561859,234.740341 
	C340.058929,236.945938 335.877228,233.856339 336.042084,225.344193 
	C336.156769,219.422165 336.824402,213.511383 336.959869,207.589050 
	C337.127502,200.261215 336.884674,192.924438 337.023468,185.595398 
	C337.334198,169.189178 331.755798,155.051239 321.768982,142.127747 
	C306.285065,122.090729 285.181702,113.372284 260.924622,111.104378 
	C244.944504,109.610329 229.555481,113.054977 214.049042,119.435585 
z"/>
<path fill="#FFFFFF" opacity="1.000000" stroke="none" 
	d="
M513.000000,113.531342 
	C511.345215,107.072174 509.708954,100.139870 508.031860,93.217445 
	C504.383118,78.156975 497.078339,64.874893 487.976410,52.516300 
	C474.698700,34.487797 457.685211,21.007334 437.326874,11.811484 
	C425.551971,6.492766 413.268005,2.809520 400.148468,1.394964 
	C437.593597,1.000000 475.187225,1.000000 513.000000,1.000000 
	C513.000000,38.353943 513.000000,75.708313 513.000000,113.531342 
z"/>
<path fill="#FFFFFF" opacity="1.000000" stroke="none" 
	d="
M400.468658,513.000000 
	C406.927826,511.345184 413.860138,509.708923 420.782562,508.031830 
	C435.843048,504.383087 449.125092,497.078278 461.483734,487.976379 
	C479.512299,474.698700 492.992615,457.685120 502.188538,437.326813 
	C507.507324,425.551941 511.190430,413.267975 512.605042,400.148468 
	C513.000000,437.593628 513.000000,475.187256 513.000000,513.000000 
	C475.646057,513.000000 438.291687,513.000000 400.468658,513.000000 
z"/>
<path fill="#FFFFFF" opacity="1.000000" stroke="none" 
	d="
M112.531342,1.000000 
	C106.400894,2.654850 99.811478,4.349534 93.200729,5.956492 
	C78.125252,9.621081 64.859406,16.934952 52.470722,26.038994 
	C34.392628,39.323994 20.780947,56.327301 11.873691,76.798576 
	C8.009474,85.679596 5.902690,95.325462 3.001325,104.625069 
	C2.572319,106.000145 2.163615,107.381546 1.372759,108.880013 
	C1.000000,73.071724 1.000000,37.143448 1.000000,1.000000 
	C38.020615,1.000000 75.041649,1.000000 112.531342,1.000000 
z"/>
<path fill="#FFFFFF" opacity="1.000000" stroke="none" 
	d="
M1.000002,405.468658 
	C2.661431,410.411011 4.520339,415.770569 5.945909,421.243042 
	C9.679855,435.576813 16.367290,448.526855 25.009468,460.355804 
	C38.484177,478.799225 55.669254,492.899933 76.647125,502.243988 
	C88.182350,507.382019 100.168427,510.780853 112.856171,512.608521 
	C75.741043,513.000000 38.482090,513.000000 1.000000,513.000000 
	C1.000000,477.312744 1.000000,441.625031 1.000002,405.468658 
z"/>
<path fill="#FFFFFF" opacity="1.000000" stroke="none" 
	d="
M214.386993,119.231323 
	C229.555481,113.054977 244.944504,109.610329 260.924622,111.104378 
	C285.181702,113.372284 306.285065,122.090729 321.768982,142.127747 
	C331.755798,155.051239 337.334198,169.189178 337.023468,185.595398 
	C336.884674,192.924438 337.127502,200.261215 336.959869,207.589050 
	C336.824402,213.511383 336.156769,219.422165 336.042084,225.344193 
	C335.877228,233.856339 340.058929,236.945938 348.561859,234.740341 
	C352.890839,233.617477 357.225800,232.445633 361.433380,230.946091 
	C366.289948,229.215225 370.269470,231.350647 374.022858,233.650391 
	C378.099335,236.148132 378.409271,242.032364 374.341827,244.806458 
	C370.037415,247.742157 365.071899,249.732941 360.325104,251.989090 
	C354.991333,254.524216 349.263092,256.383026 344.279388,259.463135 
	C337.709045,263.523804 336.818329,270.327240 340.380310,278.379639 
	C350.242920,300.675659 365.442200,318.617096 387.578430,329.729034 
	C393.236237,332.569153 399.641724,333.917145 405.698547,335.965881 
	C410.824524,337.699829 411.182983,339.141449 407.655334,342.876709 
	C401.380859,349.520508 392.864471,351.003571 384.581207,352.962006 
	C380.653473,353.890656 376.635437,354.444794 372.650055,355.119934 
	C368.541931,355.815918 366.699585,358.553467 366.017975,362.355072 
	C365.647064,364.423767 365.428162,366.523834 364.973572,368.572693 
	C363.312073,376.060883 360.794952,377.302917 353.181244,375.687134 
	C340.391266,372.972839 327.247498,371.993713 315.119049,377.282806 
	C306.076843,381.225983 298.092773,387.591583 289.627136,392.861816 
	C281.244049,398.080627 272.529510,401.887238 262.436676,403.173737 
	C242.840057,405.671661 226.924042,397.832977 211.667892,387.192352 
	C204.424088,382.140106 197.385330,376.006592 188.330200,375.208466 
	C178.261307,374.321014 167.925049,374.024384 157.937958,375.297089 
	C146.576279,376.745026 146.923370,375.981049 143.058426,366.007690 
	C142.309525,364.075165 141.871338,361.995941 141.509781,359.945618 
	C140.943878,356.736511 138.955048,355.623413 135.923523,354.919037 
	C126.867943,352.814819 117.832230,350.562744 108.927711,347.903168 
	C105.636528,346.920197 102.517479,344.934662 99.709419,342.875244 
	C96.644608,340.627502 97.610741,337.389954 101.535698,336.014954 
	C108.164574,333.692719 114.914909,331.687286 121.443939,329.116364 
	C133.287811,324.452454 142.731293,316.232697 150.543640,306.583038 
	C156.782806,298.876495 161.860397,290.126801 166.659225,281.403198 
	C168.840149,277.438507 170.968765,273.051270 169.374878,267.656464 
	C166.792358,258.915344 159.368149,257.006683 152.501831,253.986099 
	C146.949600,251.543549 141.476242,248.922043 135.930130,246.465149 
	C132.108322,244.772141 130.109436,241.693970 131.194794,237.865601 
	C132.378983,233.688660 136.150772,231.328156 140.332550,231.161499 
	C143.597122,231.031372 147.054001,231.973969 150.186859,233.102264 
	C156.036346,235.208954 161.764740,237.253586 168.034943,234.983871 
	C170.731842,234.007629 172.224594,232.627457 172.089127,229.272568 
	C171.541046,215.698547 171.243027,202.112289 171.018036,188.527802 
	C170.483597,156.259064 186.541870,134.268478 214.386993,119.231323 
z"/>
</svg>